<svg width="172" height="22" viewBox="0 0 172 22" fill="none" xmlns="http://www.w3.org/2000/svg">
<g clip-path="url(#clip0_594_241)">
<path d="M120.004 0.598389H118.092V21.9973H130.526V20.0191H120.004V0.598389Z" fill="white"/>
<path d="M144.543 0.000488281L134.527 21.9973H136.638L144.543 4.63522L152.448 21.9973H154.559L144.543 0.000488281Z" fill="white"/>
<path d="M169.595 11.3001C171.043 10.2521 172 8.47367 172 6.4481C172 3.21852 169.578 0.601074 166.591 0.601074H163.949C163.947 0.601074 163.945 0.601074 163.943 0.601074H160.451H158.54V22H160.451V21.9977H163.949H166.249H166.591C169.578 21.9977 172 19.3798 172 16.1502C172 14.1242 171.043 12.3476 169.595 11.3001ZM166.312 2.57923H166.397C168.462 2.57923 170.135 4.31162 170.135 6.4481C170.135 8.58367 168.464 10.3147 166.4 10.317H160.451V2.57923H166.312ZM166.397 20.0191H163.515H160.451V12.2951H166.529C168.531 12.3688 170.135 14.0602 170.135 16.1507C170.135 18.2871 168.461 20.0191 166.397 20.0191Z" fill="white"/>
<path d="M109.596 9.32017H100.317V0.598877H96.4949V21.9973H100.317V13.276H109.596V21.9973H113.418V0.598877H109.596V9.32017Z" fill="white"/>
<path d="M81.9644 0.598389H75.9304V4.55425H81.9644V21.9973H85.7863V4.55425H91.8199V0.598389H85.7863H81.9644Z" fill="white"/>
<path d="M22.4749 0.598389V4.55425V9.58479V13.5406V18.0437V21.9973V22.0001H36.657V18.0437H26.2972V13.5406H36.657V9.58479H26.2972V4.55425H36.657V0.598389H26.2972H22.4749Z" fill="white"/>
<path d="M13.9781 13.2452L0.000488281 0.670216V5.91202L13.9781 18.487L17.8005 21.9973V0.598877H13.9781V13.2452Z" fill="white"/>
<path d="M3.82238 18.0413H0V21.9971H3.82238V18.0413Z" fill="white"/>
<path d="M49.135 4.68029L41.3311 22H45.5488L51.2439 9.36059L56.939 22H61.1563L51.2439 0L49.135 4.68029Z" fill="white"/>
<path d="M71.9569 7.06299C71.9569 3.48546 69.1547 0.584961 65.6974 0.584961H56.8928L58.6815 4.55463H65.7041C67.0463 4.55463 68.1345 5.68086 68.1345 7.0699C68.1345 8.45894 67.0463 9.58517 65.7041 9.58517H60.9478L62.7302 13.541H62.7307L66.529 21.9714H70.7468L66.8937 13.4195C69.7782 12.8414 71.9569 10.2171 71.9569 7.06299Z" fill="white"/>
</g>
<defs>
<clipPath id="clip0_594_241">
<rect width="172" height="22" fill="white"/>
</clipPath>
</defs>
</svg>
