<svg width="24" height="16" viewBox="0 0 24 16" fill="none" xmlns="http://www.w3.org/2000/svg">
<path fill-rule="evenodd" clip-rule="evenodd" d="M23.0608 3.15275C22.6236 1.51275 21.8075 0.881323 20.3036 0.654657C19.4408 0.534657 15.2865 0.380371 11.9875 0.380371C8.68936 0.380371 4.53507 0.534657 3.67222 0.654657C2.17031 0.881323 1.35031 1.51561 0.918884 3.15275C0.770312 3.69942 0.570312 6.71561 0.570312 7.86323V8.11656C0.570312 9.26704 0.770312 12.2813 0.918884 12.8299C1.35031 14.467 2.17031 15.0975 3.67222 15.3242C4.53507 15.4451 8.69412 15.5966 11.9951 15.5966L11.9808 15.5994C15.2817 15.5994 19.4398 15.4451 20.3036 15.3242C21.8075 15.0975 22.6236 14.467 23.0608 12.8299C23.2046 12.2813 23.4055 9.26704 23.4055 8.11656V7.86323C23.4055 6.71561 23.2046 3.69942 23.0608 3.15275ZM9.24936 10.7404V5.23847L14.7246 7.92608L9.24936 10.7404Z" fill="white"/>
</svg>
