<svg width="16" height="16" viewBox="0 0 16 16" fill="none" xmlns="http://www.w3.org/2000/svg">
<path d="M0.628791 5.48845H3.7891V15.6668H0.628791V5.48845ZM2.2114 0.428711C3.22074 0.428711 4.03899 1.24828 4.03899 2.26415C4.03899 3.27512 3.22074 4.09959 2.2114 4.09959C1.19716 4.09959 0.378906 3.27512 0.378906 2.26415C0.378906 1.24828 1.19716 0.428711 2.2114 0.428711Z" fill="white"/>
<path d="M5.77344 5.48857H8.80146V6.88233H8.84556C9.26693 6.08239 10.2959 5.23828 11.8344 5.23828C15.0339 5.23828 15.6219 7.34364 15.6219 10.087V15.6669H12.4664V10.7152C12.4664 9.53734 12.4468 8.01598 10.825 8.01598C9.18364 8.01598 8.92885 9.30177 8.92885 10.6317V15.6669H5.77344V5.48857V5.48857Z" fill="white"/>
</svg>
