<svg width="215" height="29" viewBox="0 0 215 29" fill="none" xmlns="http://www.w3.org/2000/svg">
<path d="M181.197 17.4269C181.197 8.24801 188.796 5.85352 192.727 5.85352C198.23 5.85352 203.601 9.71131 203.863 16.8948C203.863 18.6242 203.732 19.6884 203.732 19.6884H186.962C187.617 23.2801 191.548 23.6792 192.727 23.6792C195.871 23.6792 197.574 21.8168 198.23 21.1517L202.684 23.8122C201.898 25.0095 199.016 29.0003 192.727 29.0003C188.665 29.0003 181.197 26.6058 181.197 17.4269ZM187.093 15.4315H197.705C197.443 13.4361 195.609 11.1746 192.727 11.1746C189.451 11.1746 187.355 13.17 187.093 15.4315Z" fill="white"/>
<path d="M133.507 5.98633V7.84871C131.673 6.65147 129.577 5.98633 127.35 5.98633C121.061 5.98633 116.082 11.1744 116.082 17.4267C116.082 23.812 121.192 28.8671 127.35 28.8671C129.577 28.8671 131.673 28.2019 133.507 27.0047V28.8671H139.01V5.98633H133.507ZM127.35 23.679C123.943 23.679 121.192 20.8854 121.192 17.4267C121.192 13.968 123.943 11.1744 127.35 11.1744C130.756 11.1744 133.507 13.968 133.507 17.4267C133.507 20.8854 130.756 23.679 127.35 23.679Z" fill="white"/>
<path d="M35.7675 5.98633C29.4787 5.98633 24.5 11.1744 24.5 17.4267C24.5 23.812 29.6097 28.8671 35.7675 28.8671C42.0564 28.8671 47.035 23.679 47.035 17.4267C47.1661 11.1744 42.0564 5.98633 35.7675 5.98633ZM35.7675 23.679C32.3611 23.679 29.6097 20.8854 29.6097 17.4267C29.6097 13.968 32.3611 11.1744 35.7675 11.1744C39.174 11.1744 41.9253 13.968 41.9253 17.4267C41.9253 20.8854 39.174 23.679 35.7675 23.679Z" fill="white"/>
<path d="M61.8398 5.98633C55.5509 5.98633 50.5723 11.1744 50.5723 17.4267C50.5723 23.812 55.682 28.8671 61.8398 28.8671C68.1286 28.8671 73.1073 23.679 73.1073 17.4267C73.1073 11.1744 67.9976 5.98633 61.8398 5.98633ZM61.8398 23.679C58.4333 23.679 55.682 20.8854 55.682 17.4267C55.682 13.968 58.4333 11.1744 61.8398 11.1744C65.2462 11.1744 67.9976 13.968 67.9976 17.4267C67.8666 20.8854 65.1152 23.679 61.8398 23.679Z" fill="white"/>
<path d="M102.849 6.25238C99.9668 6.25238 97.4775 7.44963 95.9053 9.31202C94.4641 7.44963 92.2368 6.25238 88.9614 6.25238C87.1271 6.25238 84.7688 7.3166 83.1966 8.64688V5.98633H77.3008V29.0001H83.1966V17.1606C83.1966 12.2386 85.5549 11.3074 87.3891 11.3074C89.6164 11.3074 91.5817 12.3716 91.5817 15.8304V29.0001H97.6085V16.6285C97.6085 12.3717 100.098 11.3074 101.801 11.3074C104.028 11.3074 105.994 12.3716 105.994 15.8304V29.0001H112.02V15.8304C111.889 9.97715 109.138 6.25238 102.849 6.25238Z" fill="white"/>
<path d="M155.911 5.98624C153.684 5.98624 151.587 6.65138 149.753 7.84862V0H143.857V8.38073V28.867H149.753V27.0046C151.587 28.2018 153.684 28.867 155.911 28.867C162.2 28.867 167.179 23.6789 167.179 17.4266C167.31 11.1743 162.2 5.98624 155.911 5.98624ZM155.911 23.6789C152.505 23.6789 149.753 20.8853 149.753 17.4266C149.753 13.9679 152.505 11.1743 155.911 11.1743C159.317 11.1743 162.069 13.9679 162.069 17.4266C162.069 20.8853 159.317 23.6789 155.911 23.6789Z" fill="white"/>
<path d="M171.502 0V8.38073V29H177.267V5.98624V0H171.502Z" fill="white"/>
<path d="M10.6124 23.0142L22.273 6.38574H0.524071V11.9729H11.5296L0 28.6013H21.7489V23.0142H10.6124Z" fill="white"/>
<path d="M205.435 0.931193H203.863V0H208.187V0.931193H206.615V4.92202H205.435V0.931193Z" fill="white"/>
<path d="M213.953 4.92202V1.99541L212.511 4.38991H211.987L210.546 1.99541V4.92202H209.498V0H210.415L212.249 3.05963L214.084 0H215.001V4.92202H213.953Z" fill="white"/>
</svg>
