<svg xmlns="http://www.w3.org/2000/svg" viewBox="0 0 168.8 32.55"><defs><style>.cls-1{fill:#333;}</style></defs><title>recruit_deco</title><g id="Layer_2" data-name="Layer 2"><g id="Layer_1-2" data-name="Layer 1"><path class="cls-1" d="M81.09,30.92,86.3,8.5l-13,22H68.19l-.62-22-6.9,22.42h-6L64,3h8.81l.42,18.25L84,3h9.19L87.48,30.92Z"/><path class="cls-1" d="M102.33,7.59H105c2.56,0,4.66.87,4.66,3.52,0,2.82-2.6,5.1-6.53,5.1a13.33,13.33,0,0,1-2.56-.21ZM91,30.92h6.43l2.1-10c.69,0,1.61.16,2.7.16,3.75,0,7.35-.82,9.87-2.6a9.44,9.44,0,0,0,4.15-7.83A6.53,6.53,0,0,0,113,4.69C110.71,3.24,107.56,3,104.77,3h-7.9Z"/><path class="cls-1" d="M134.94,3h6.86L119.73,30.92H112.1L121,20.27,115.9,3h6.45l3,12.15Z"/><path class="cls-1" d="M153.73.46a23.45,23.45,0,0,0-9.21,1.82l-11,13.92a18.59,18.59,0,0,0-.28,3.17c0,7.15,5.42,12.8,15.12,12.8h.06a21.47,21.47,0,0,0,13.79-4.46,18.71,18.71,0,0,0,6.6-14.45C168.8,5.92,163.59.46,153.73.46Zm-4.39,26.89h-.06c-5.82,0-8.4-3.44-8.4-8,0-6.19,4.74-14,12-14,6.36,0,8.16,3.92,8.16,8C161,19.41,156.3,27.35,149.34,27.35Z"/><path class="cls-1" d="M48.89,30.92h6.9L52.23,3H43.78l-15,27.93h7l2.86-6h9.74Zm-8-10.49s5.22-11.1,6-12.8L48,20.43Z"/><path class="cls-1" d="M22.88,13.43c-3.75-1.41-6.2-2.26-6.6-4s1.1-3.27,5-3.62C26.59,5.39,32,7.55,35.48,9.55l3-5.48A31.41,31.41,0,0,0,20.22.12h0C12.63.8,6.32,4.33,7.68,10.39c.74,3.3,4,5.76,9.57,7.9,2.93,1.13,6,2.47,6.42,4.19.51,2.3-2.23,3.74-5.47,4.05h-.06C12.77,27,7.27,25,3.15,22.76L0,28.69a38.58,38.58,0,0,0,18.27,3.82,22.67,22.67,0,0,0,8.27-1.67L32.2,20.33C31.21,17.63,28.47,15.53,22.88,13.43Z"/></g></g></svg>